# xmcd
#
# Track frame offsets: 
#        150
#        17974
#        41188
#        63904
#        82914
#        103818
#        122299
#        142292
#        161736
#        182485
#
# Disc length: 2600 seconds
#
# Revision: 0
# Processed by: cddbd v1.5.2PL0 Copyright (c) Steve Scherf et al.
# Submitted via: ExactAudioCopy v1.0b6
#
DISCID=850a260a
DTITLE=BWB - BWB (2016)
DYEAR=2016
DGENRE=Smooth Jazz
TTITLE0=Triple Dare
TTITLE1=Bust A Move
TTITLE2=BWB
TTITLE3=Bolly Bop
TTITLE4=I Want You Girl
TTITLE5=Lemonade
TTITLE6=Memphis Steppin'
TTITLE7=Hey Baby
TTITLE8=North Star
TTITLE9=Turn Up
EXTD=
EXTT0=
EXTT1=
EXTT2=
EXTT3=
EXTT4=
EXTT5=
EXTT6=
EXTT7=
EXTT8=
EXTT9=
PLAYORDER=
